<?xml version="1.0" encoding="utf-8"?>
<!-- Generator: $$$/GeneralStr/196=Adobe Illustrator 27.6.0, SVG Export Plug-In . SVG Version: 6.00 Build 0)  -->
<svg version="1.1" id="Livello_1" xmlns="http://www.w3.org/2000/svg" xmlns:xlink="http://www.w3.org/1999/xlink" x="0px" y="0px"
	 viewBox="0 0 155.2 154.3" style="enable-background:new 0 0 155.2 154.3;" xml:space="preserve">
<style type="text/css">
	.st0{opacity:0.2;fill:#007DFF;}
	.st1{opacity:0.2;fill:#007DFF;enable-background:new    ;}
</style>
<path class="st0" d="M38.1,0C17,0,0,34.5,0,77.1s17,77.1,38.1,77.1h86.1c-21,0-38.1-34.5-38.1-77.1S103.1,0,124.2,0H38.1z"/>
<path class="st1" d="M77.9,44.1h71.3c4.1,0,6.9-3.9,5.7-7.8c-6.7-21.7-18.7-36.2-32.3-36.2H36.6c13.9,0,26,15,32.7,37.5
	C70.4,41.4,73.9,44.1,77.9,44.1"/>
<path class="st1" d="M77.9,110.3c-4,0-7.5,2.7-8.6,6.5c-6.7,22.5-18.8,37.5-32.7,37.5h86.1c13.6,0,25.5-14.4,32.3-36.2
	c1.2-3.9-1.7-7.8-5.7-7.8L77.9,110.3L77.9,110.3z"/>
</svg>
